<?xml version="1.0" encoding="utf-8"?>
<!-- Generator: Adobe Illustrator 27.8.1, SVG Export Plug-In . SVG Version: 6.00 Build 0)  -->
<svg version="1.1" xmlns="http://www.w3.org/2000/svg" xmlns:xlink="http://www.w3.org/1999/xlink" x="0px" y="0px"
	 viewBox="0 0 1920 1080" style="enable-background:new 0 0 1920 1080;" xml:space="preserve">
<style type="text/css">
	.st0{fill:url(#SVGID_1_);stroke:#000000;stroke-miterlimit:10;}
	.st1{stroke:#000000;stroke-miterlimit:10;}
	.st2{fill:#FFFFFF;stroke:#000000;stroke-miterlimit:10;}
</style>
<g id="Layer_2">
	<linearGradient id="SVGID_1_" gradientUnits="userSpaceOnUse" x1="290.3449" y1="300.8867" x2="1757.9312" y2="742.2661">
		<stop  offset="0" style="stop-color:#FFFFFF"/>
		<stop  offset="0.1929" style="stop-color:#4D4D4D"/>
		<stop  offset="0.2821" style="stop-color:#000000"/>
		<stop  offset="0.377" style="stop-color:#020202"/>
		<stop  offset="0.4112" style="stop-color:#090808"/>
		<stop  offset="0.4356" style="stop-color:#141414"/>
		<stop  offset="0.4553" style="stop-color:#252425"/>
		<stop  offset="0.4722" style="stop-color:#3B3A3A"/>
		<stop  offset="0.4868" style="stop-color:#565354"/>
		<stop  offset="0.4944" style="stop-color:#676465"/>
		<stop  offset="0.5237" style="stop-color:#696667"/>
		<stop  offset="0.5382" style="stop-color:#716E6F"/>
		<stop  offset="0.5493" style="stop-color:#7E7B7C"/>
		<stop  offset="0.5588" style="stop-color:#908E8E"/>
		<stop  offset="0.5672" style="stop-color:#A8A6A6"/>
		<stop  offset="0.5749" style="stop-color:#C5C4C4"/>
		<stop  offset="0.5819" style="stop-color:#E7E6E6"/>
		<stop  offset="0.586" style="stop-color:#FFFFFF"/>
		<stop  offset="0.5878" style="stop-color:#F6F6F6"/>
		<stop  offset="0.5975" style="stop-color:#C8C8C8"/>
		<stop  offset="0.6085" style="stop-color:#9D9D9D"/>
		<stop  offset="0.6202" style="stop-color:#777777"/>
		<stop  offset="0.6331" style="stop-color:#575757"/>
		<stop  offset="0.6472" style="stop-color:#3B3B3B"/>
		<stop  offset="0.6632" style="stop-color:#252525"/>
		<stop  offset="0.6819" style="stop-color:#141414"/>
		<stop  offset="0.7049" style="stop-color:#090909"/>
		<stop  offset="0.7373" style="stop-color:#020202"/>
		<stop  offset="0.8271" style="stop-color:#000000"/>
	</linearGradient>
	<path class="st0" d="M26.5,116.5c-10.95,38.15-64.45,234.38,27,310c26.7,22.07,66.21,34.25,238,9
		c305.91-44.96,363.58-110.46,455-66c36.7,17.85,86.8,88.9,187,231c55.42,78.59,73.28,113.15,124,154
		c20.03,16.13,105.66,85.1,194,85c205.14-0.23,393.89-372.88,310-488c-67.46-92.56-284.19,18.44-368-98
		c-42.35-58.84-28.55-144.91,2-198c63.76-110.83,234-136.3,319-79c87.09,58.71,30.84,167.98,132,278
		c92.2,100.27,180.15,54.33,226,134c46.78,81.27-30.75,153.39-153,500c-50.34,142.74-54.29,178.98-93,194
		c-127.21,49.35-305.32-256.39-435-205c-79.72,31.59-51.42,162.58-130,192c-113.98,42.67-219.59-215.67-419-220
		c-193.24-4.19-302.62,233.87-377,193c-64.47-35.42-44.54-248.48,28-273c84.92-28.7,167.96,225.99,333,224
		c95.05-1.14,166.95-86.82,298-243c166.15-198.01,205.05-323.57,269-315c85.7,11.49,96.64,247.87,130,245
		c43.22-3.72,116.33-408.38-38-506c-117.17-74.11-244.52,105.24-501,80c-273.34-26.9-436.66-260.91-468-232
		c-51.26,47.28,444.69,618.64,369,700c-70.12,75.38-552-354.6-731-222c-66.09,48.96-71.43,160.2-58,270c12.19,6.14,27.71,12.48,33,7
		c7.13-7.39-8.31-32.17-14-43c-29.09-55.34-17.48-152.63,23-196c72.93-78.15,261.71-4.96,341,36c8.69,4.49,2.9,1.79,63,38
		c235.95,142.15,286.03,160.16,326,141c22.13-10.61,37.6-30.9,44-50c16.05-47.9-21.08-99.83-44-131c0,0-118.59-161.31-317-492
		c-4.97-8.28-17.23-28.99-12-34c12.06-11.54,96.53,80.13,211,149c92.07,55.39,245.46,147.67,383,102c65.38-21.71,97.48-64.72,220-98
		c50.41-13.69,76.05-20.39,97-13c130.11,45.87,99.18,459.33,80,461c-8.29,0.72-11.84-75.75-70-188c-29.47-56.87-53.32-101.72-83-101
		c-35.77,0.87-50.4,67.19-101,157c-31.34,55.63-69.9,100.42-147,190c-135.98,157.98-203.97,236.97-272,245
		c-126.81,14.98-271.73-139.93-287-191c-0.87-2.92-3.72-13.54-13-20c-23.6-16.44-71.17,6.24-97,27c-80.45,64.66-73.23,209.77-30,269
		c5.9,8.09,11.13,12.73,17,16c35.4,19.73,88.74-13.31,141-48c161.25-107.03,155.82-125.89,200-133c79.96-12.86,156.65,39.43,200,69
		c47.49,32.38,60.79,56.59,142,112c68.59,46.8,88.05,49.25,103,48c54.48-4.54,100.7-62.4,120-111c19.32-48.64,5.7-72.98,26-87
		c37.24-25.73,119.61,30.95,156,56c79.44,54.67,78.2,83.3,142,116c33.15,16.99,100.36,51.43,156,27c38.41-16.87,46.23-50.78,109-199
		c31.85-75.22,47.78-112.83,64-146c77.4-158.28,119.63-167.44,125-246c4.63-67.77-20.8-148.87-77-183
		c-24.74-15.02-46.77-15.68-61-18c-114.09-18.59-198.11-174.71-217-300c-6.14-40.73-1.08-54.58-16-74
		c-44.05-57.36-168.03-40.67-246-8c-36.99,15.5-165.49,69.35-179,191c-7.52,67.73,21.28,150.39,80,186
		c39.03,23.67,110.69,26.78,254,33c35.7,1.55,46.26,1.34,57,10c57.31,46.23,16.99,221.72-70,340c-40.59,55.2-83.63,113.72-156,129
		c-166.6,35.19-375.9-182.55-388-335c-1.12-14.09-1.09-34.36-13-58c-44.86-89-193.99-96.58-222-98c-89.96-4.57-168.97,19.95-327,69
		c-86.48,26.84-143.82,49.58-208,24c-48.17-19.2-74.48-55.37-82-66c-67.11-94.83-18.02-213.69-14-223L26.5,116.5z"/>
	<path class="st1" d="M1162.5,835.5"/>
</g>
<g id="Layer_1">
	<path class="st2" d="M54.5,392.5"/>
</g>
</svg>
