<?xml version="1.0" encoding="utf-8"?>
<!-- Generator: Adobe Illustrator 27.8.1, SVG Export Plug-In . SVG Version: 6.00 Build 0)  -->
<svg version="1.1" xmlns="http://www.w3.org/2000/svg" xmlns:xlink="http://www.w3.org/1999/xlink" x="0px" y="0px"
	 viewBox="0 0 318.99 281.1" style="enable-background:new 0 0 318.99 281.1;" xml:space="preserve">
<style type="text/css">
	.st0{fill:none;stroke:#000000;stroke-miterlimit:10;}
	.st1{fill:#010419;stroke:#FFFFFF;stroke-miterlimit:10;}
	.st2{fill:#FFFFFF;stroke:#FFFFFF;stroke-miterlimit:10;}
	.st3{fill:#176D87;stroke:#FFFFFF;stroke-miterlimit:10;}
	.st4{fill:#599396;}
	.st5{font-family:'Constantia';}
	.st6{font-size:98.8875px;}
	.st7{stroke:#000000;stroke-miterlimit:10;}
	.st8{fill:#FFFFFF;stroke:#000000;stroke-miterlimit:10;}
	.st9{fill:#F0F5F7;stroke:#000000;stroke-miterlimit:10;}
	.st10{fill:#F9F9F9;stroke:#000000;stroke-miterlimit:10;}
	.st11{fill:#176D87;}
	.st12{fill:#28B3DD;stroke:#000000;stroke-miterlimit:10;}
	.st13{fill:#196C7F;}
</style>
<g id="Layer_1">
	<path class="st0" d="M-47.91,170.07"/>
	<rect x="-2.21" y="-0.69" class="st1" width="323.4" height="282.48"/>
	<path class="st2" d="M451.13,218.62"/>
	<path class="st3" d="M134.62,198.02c-0.1,1.81-0.69,3.95-0.37,4.05c0.51,0.15,3.71-4.9,3.31-9.93"/>
	<path class="st3" d="M120.28,178.16"/>
	<text transform="matrix(0.861 0 0 1 7.3425 83.5059)" class="st4 st5 st6">Rubbish</text>
	<text transform="matrix(1 0 0 1 126.1608 -26.8966)" style="font-family:'SOLARSPACEDEMO-Regular'; font-size:72px;"> </text>
</g>
<g id="Layer_4">
	<path class="st7" d="M152.63,82.26c-0.63-8.63,32.6-17.5,43.05-19.78c15.62-3.41,25.08-1.88,30.34-0.55
		c0.52,0.13,3.11,1.01,8.28,2.76c21.22,7.19,24.48,8.85,27.03,12.14c2.38,3.06,5.36,9.06,3.86,13.24
		C258.29,109.35,153.73,97.37,152.63,82.26z"/>
	<path class="st7" d="M376.64,82.9"/>
</g>
<g id="Layer_3">
	<path class="st8" d="M149.91,96.75c-0.85,2.56-1.25,4.45-1.2,4.51c0.08,0.08,0.16,0.15,0.16,0.15c0,0,0,0,0,0
		c0.2,0.15,0.39,0.21,0.54,0.23c0,0,0.15,0.05,0.31,0.07c0.55,0.1,15.83-4.16,15.46-4.97c-0.35-0.76-14.26,2.09-19.87,11.77
		c-0.8,1.37-1.19,2.46-1.93,4.6c-2.82,8.13-2.57,18.76-2.57,18.76c0.16,6.94,0.34,14.77,4.23,23.91c1.27,2.98,6.01,13.29,17.2,21.7
		c5.34,4.02,13.33,10.03,25.16,10.25c11.1,0.21,18.9-4.89,23.45-7.86c4.46-2.91,10.1-6.7,11.26-12.87c0.59-3.11-0.62-3.3,0.18-6.02
		c1.85-6.26,9.85-11.03,9.93-13.24c0.06-1.57-0.55-3.03-0.55-3.03c-0.76-1.84-1.84-2.2-2.62-3.31c-1.87-2.66,0.98-5.26,0.28-10.9
		c-0.21-1.71-0.32-4.14-1.97-5.51c-0.25-0.21-4.04,1.31-6.58,2.2c-3.94,1.38-9.12,0.07-11.59-2.9c-1.54-1.85-0.78-2.85-2.07-8
		c-0.88-3.53-2.06-8.22-5.1-11.59c-0.2-0.22-0.7-0.72-1.4-1.3c-3.67-3.03-7.66-3.68-9.08-3.94c-7.24-1.34-9.24-4.21-16.28-5.52
		C167.07,92.42,160.86,84.79,149.91,96.75z"/>
	<path class="st8" d="M152.63,82.26c-1.38,1.51-3.17,4.64-6.76,10.9c-0.51,0.89-1.23,2.17-1.52,4c-0.6,3.8,1.27,6.21,0.83,6.48
		c-1.03,0.64-11.97-12.26-8.97-16.83c0.61-0.93,1.77-1.48,3.31-3.86c0.79-1.22,1.93-3.31,1.93-3.31c1.4-3.2,2.22-4.62,2.22-4.62
		c0.29-0.5,0.43-0.75,0.54-0.9c1.68-2.31,5.34-2.01,8-2.48c3.59-0.64,4.46-2.56,8.28-4.97c4.87-3.08,6.84-2.1,18.21-4.97
		c8.8-2.21,7.59-2.79,16.55-4.97c8.97-2.18,13.67-2.45,16.55-2.48c2.46-0.03,5.85-0.05,10.21,0.83c4.44,0.9,7.71,2.3,11.31,3.86
		c5.08,2.21,4.91,2.65,9.38,4.69c9.64,4.39,12.06,3.04,16.83,6.9c1.42,1.15,4.63,3.81,6.34,8.28c1.19,3.1,0.49,4.03,1.66,10.76
		c1.08,6.21,1.82,6.27,1.66,9.1c-0.08,1.41-0.45,6.45-4.41,10.21c-0.84,0.8-2.98,2.77-6.34,3.31c-2.89,0.46-7.01-0.08-9.1-2.76
		c-1.4-1.79-1.23-3.69-1.38-6.34c-0.29-5.16-1.31-4.91-3.31-14.07c-2.9-13.29-0.92-14.66-3.59-18.21c-3.25-4.33-8.5-5.33-13.79-6.34
		c-4.86-0.93-13.67-3.36-21.41,1.06c-2.36,1.35-3.95,2.26-4.79,4.19c-2.14,4.92,3.62,10.31,0.55,15.17
		c-0.84,1.33-1.35,1.19-1.93,2.48c-2.35,5.23,4.08,11.82,3.03,12.69c-0.65,0.54-3.88-1.42-6.07-4.69c-2.37-3.54-2.04-6.39-2.76-8.55
		C190.54,76.77,161.46,72.61,152.63,82.26z"/>
	<path class="st8" d="M206.29,226.4c-0.03,4.78,3.36,10.84,7.17,14.34c1.06,0.97,1.31,0.98,2.21,1.93
		c3.59,3.81,3.68,8.08,4.69,13.52c0.83,4.47,2.61,11.54,6.62,18.21c2.96,4.92,5.02,6.12,6.07,6.62c5.33,2.54,12.09,0.24,12.14-1.1
		c0.03-0.85-2.68-0.58-4.69-2.76c-3.4-3.7-1.35-10.75-0.55-13.52c1.48-5.09,4.11-8.42,5.8-10.53c3.68-4.57,8.1-7.83,8.54-7.4
		c0.41,0.39-2.82,3.53-6.34,9.93c-2.47,4.49-4.01,7.34-4.14,11.03c-0.16,4.41,1.74,8.5,3.59,10.76
		c10.95,13.37,46.86-5.02,66.76,1.93c1.29,0.45,5.18,1.94,6.9,0.28c2.4-2.32-0.97-9.27-2.21-12.14c-3.07-7.16-2.46-11.4,0.55-55.72
		c1.69-24.93,2.13-32.79,0.55-33.1c-1.16-0.23-2.4,3.83-9.1,17.66c-7.03,14.48-9.53,17.99-12.14,20.97
		c-1.95,2.22-5.98,6.46-12.14,10.21c-5.71,3.47-12.88,6.29-13.52,5.24c-0.67-1.1,5.6-6.71,11.86-10.76
		c7.73-4.99,10.53-4.41,11.86-7.45c1.07-2.43,0.73-6.14-10.48-21.52c-8-10.97-12.01-16.46-14.9-17.93
		c-14.43-7.37-37.62,2.06-44.97,16.28c-2.84,5.49-0.75,6.75-4.41,13.79C215.48,217.72,206.34,218.59,206.29,226.4z"/>
	<path class="st8" d="M267.53,89.57c3.71-0.48,9.61-0.53,14.34,3.03c2.86,2.16,4.39,5.21,7.45,11.31c0.46,0.93,2.44,4.91,4.41,10.76
		c2.31,6.82,3.46,10.23,3.31,13.52c-0.27,5.95-3.05,9.16-1.1,11.59c1.27,1.58,2.99,0.87,4.69,2.21c3.77,2.97,1.72,11.46,1.1,14.07
		c-2.12,9.03-4.24,20.66-6.62,36.41l-3.59,8.83"/>
	<line class="st8" x1="148.87" y1="99.93" x2="145.18" y2="103.64"/>
	<polyline class="st8" points="140.17,124.97 137.32,125.43 127.48,107.87 127.85,104.47 126.93,100.52 127.3,97.48 135.94,90.68 	
		"/>
	<path class="st8" d="M217.32,85.71"/>
	<path class="st8" d="M228.72,168.84"/>
	<path class="st8" d="M221,179.5"/>
	<path class="st8" d="M225.41,180.98c-1.56,1.77-4.08,4.22-7.72,6.25c-4.45,2.49-8.32,3.11-12.14,3.68
		c-9.85,1.47-18.09-0.27-23.54-1.47c-1.87-0.41-3.39-0.82-4.41-1.1"/>
	<line class="st8" x1="246.29" y1="113.02" x2="247.25" y2="122.68"/>
	<line class="st8" x1="246.84" y1="130.95" x2="246.84" y2="131.23"/>
	<line class="st8" x1="247.25" y1="122.68" x2="246.29" y2="132.61"/>
	<line class="st8" x1="243.53" y1="144.47" x2="246.84" y2="138.68"/>
	<line class="st8" x1="253.46" y1="141.99" x2="252.36" y2="142.26"/>
	<line class="st8" x1="209.32" y1="219.78" x2="206.56" y2="201.3"/>
	<path class="st8" d="M202.21,213.66c1.7-3.57,3.39-7.14,5.09-10.7c-33.12-7.66-53.53-13.54-53.09-16.33
		c0.21-1.32,5.14-2.12,4.97-3.31c-0.17-1.18-4.99-0.17-8.28-3.03c-1.96-1.71-1.22-2.92-3.31-7.72c-2.91-6.7-5.63-7.34-5.79-11.59
		c-0.14-3.72,1.88-5.16,0.95-6.29c-1.78-2.17-11.64,0.19-16.83,6.9c-3.56,4.6-1.89,7.33-6.34,11.86c-1.9,1.93-5.26,5.35-9.38,5.24
		c-1.37-0.03-3.29-0.47-6.34,0c-0.58,0.09-1.59,0.27-2.93,0.68c-4.72,1.45-5.29,3.38-10.31,5.39c-2.26,0.9-3.39,1.36-4.82,1.6
		c-1.71,0.29-2.58,0.16-3.46,0.88c-1.16,0.95-0.63,2.21-1.51,3.53c-0.04,0.06-0.08,0.13-0.14,0.2c-1.47,1.94-5.76,3.31-7.83,4.05
		c-2.74,0.99-1.79,1.04-6.47,3.01c-3.18,1.34-3.78,1.38-5.7,2.39c-2.26,1.19-3.83,2.02-5.24,3.59c-1.73,1.92-1.24,2.74-3.59,8.55
		c-1.69,4.18-2.82,5.92-2.02,6.8c0.59,0.66,1.92,0.51,2.76,0.18c1.33-0.52,1.67-1.62,3.68-5.15c1.63-2.87,2.57-4.2,3.68-4.41
		c0.21-0.04,1.11-0.17,2.21,0c0.41,0.06,0.62,0.09,0.74,0.18c0.79,0.61,0.46,3.3-0.98,5.2c-0.94,1.24-2.34,2.3-2.73,3.93
		c-0.02,0.07-0.02,0.14-0.03,0.21c-0.08,1.28,0.46,2.84,1.36,3.06c1.01,0.25,1.8-1.34,4.3-3.95c1.06-1.1,3.36-3.39,6.62-5.24
		c2.45-1.39,3.3-1.31,4.32-2.67c1.35-1.79,1.05-3.51,2.21-3.86c0.98-0.3,2.26,0.61,2.85,1.56c0.46,0.74,0.26,1.14,0.55,2.76
		c0.28,1.56,0.53,2.96,1.38,3.86c0.54,0.57,1.52,1.17,3.71,1.16c4.9-0.02,6.22-3.35,11.59-4.41c3.69-0.73,9.38-0.75,12.4-1.61
		c0.69-0.2,2.02-0.66,3.32-1.42c0.34-0.2,0.76-0.45,1.25-0.85c0.55-0.44,1.15-1.05,1.42-1.32c0.01-0.01,0,0,0,0
		c0.71-0.71,2.07-1.68,2.57-1.98c3.81-2.24,9.53-2.54,9.53-2.54c4.46-0.23,4.98,0.54,8.83,0.55c8.53,0.02,12.11-3.77,14.19-1.88
		c0.9,0.82,0.43,4.05-0.55,10.48c-0.68,4.42-1.56,8.79-1.22,14.13c0.02,0.35,0.05,0.76,0.11,1.32c0.43,3.8,1.73,7.47,3.03,9.38
		c2.22,3.24,5.8,3.34,9.38,4.69c6.89,2.59,5.99,6.87,19.03,22.07c0,0,10.49,12.23,17.93,12.14c0.83-0.01,1.64-0.15,1.64-0.15
		c1.74-0.29,2.93-0.95,3.44-1.21c0.73-0.37,1.26-0.53,5.68-1.4c9.07-1.78,10.35-1.8,11.03-3.03c0.9-1.63-0.13-3.77-0.83-5.24
		c-2.54-5.32-7.56-7.87-8.4-8.33C207.28,253.06,202.57,243.72,202.21,213.66z"/>
	<line class="st8" x1="207.39" y1="203.78" x2="188.08" y2="224.19"/>
	<line class="st8" x1="186.7" y1="242.68" x2="188.08" y2="224.19"/>
	<line class="st8" x1="202.42" y1="255.09" x2="186.7" y2="242.68"/>
	<line class="st8" x1="193.6" y1="273.57" x2="202.42" y2="255.09"/>
	<line class="st8" x1="148.08" y1="192.19" x2="188.08" y2="224.19"/>
	<line class="st8" x1="246.84" y1="138.68" x2="268.36" y2="173.16"/>
	<line class="st8" x1="231.67" y1="144.7" x2="243.53" y2="144.47"/>
	<line class="st8" x1="246.99" y1="131.23" x2="246.69" y2="138.67"/>
	<line class="st8" x1="242.15" y1="161.02" x2="243.53" y2="144.47"/>
	<line class="st8" x1="225.41" y1="180.98" x2="242.15" y2="161.02"/>
	<line class="st8" x1="140.91" y1="123.23" x2="140.17" y2="124.98"/>
	<line class="st8" x1="127.3" y1="97.48" x2="135.67" y2="96.19"/>
	<line class="st8" x1="140.36" y1="102.26" x2="135.67" y2="96.19"/>
	<line class="st8" x1="143.38" y1="113.11" x2="140.36" y2="102.26"/>
	<line class="st8" x1="225.32" y1="124.88" x2="251.8" y2="110.81"/>
	<line class="st8" x1="201.05" y1="69.71" x2="209.18" y2="70.12"/>
	<line class="st8" x1="218.98" y1="83.5" x2="209.18" y2="70.12"/>
	<line class="st8" x1="223.67" y1="125.16" x2="218.98" y2="83.5"/>
	<line class="st8" x1="142.29" y1="78.26" x2="175.94" y2="66.95"/>
	<line class="st8" x1="183.67" y1="68.61" x2="175.94" y2="66.95"/>
	<line class="st8" x1="196.08" y1="65.85" x2="183.67" y2="68.61"/>
	<line class="st8" x1="201.05" y1="75.23" x2="196.08" y2="65.85"/>
	<line class="st8" x1="280.77" y1="186.12" x2="269.18" y2="101.71"/>
	<path class="st8" d="M167.11,249.85c-2.02,9.93-4.05,19.86-6.07,29.79c10.7-0.23,14.16-2.1,14.77-4.19
		c0.64-2.21-1.99-4.24-4.41-8.28C168.76,262.78,167.04,257.16,167.11,249.85z"/>
	<line class="st8" x1="295.39" y1="206.54" x2="312.77" y2="193.57"/>
	<path class="st8" d="M277.18,279.09"/>
	<path class="st8" d="M292.63,220.33"/>
	<path class="st8" d="M101.46,211.78"/>
	<path class="st8" d="M98.98,180.88"/>
	<path class="st9" d="M228.23,102.21c-0.39,0-0.37-0.78-2.88-10.78c-1.92-7.67-2.88-11.5-3.75-14.04c-2.28-6.68-4.1-9.31-3.31-9.93
		c1.07-0.84,6.24,2.52,9.38,7.17C235.08,85.62,230.02,102.22,228.23,102.21z"/>
	<path class="st10" d="M206.16,79.59c-1.33,0.75,0.58,6.15,6.62,24.28c6,18.01,6.16,18.82,6.62,18.76
		c2.34-0.29,5.17-22.25-6.07-36.97C211.25,82.93,207.47,78.85,206.16,79.59z"/>
	<path class="st11" d="M154.3,160.14c1.52,2.68,6.73,11.42,17.66,16.55c4.07,1.91,11.34,5.33,20.41,3.31
		c9.09-2.02,19.25-9.34,18.21-14.34c-2.01-9.65-43.45,1.15-55.72-18.21c-8.85-13.95,2.12-34.93,0.55-35.31
		c-1.26-0.3-7.95,13.21-6.62,29.24C149.64,151.71,153.45,158.64,154.3,160.14z"/>
	<path class="st12" d="M404.78,74.07"/>
	<path class="st11" d="M351.82,126.48"/>
	<path class="st11" d="M427.95,88.97"/>
	<path class="st11" d="M421.33,83.45"/>
	<path class="st8" d="M251.59,121.52c-1.41,0.39,0.12,14.27,5.89,26.85c2.77,6.05,7.75,14.47,8.83,13.98
		C268.57,161.31,254.08,120.83,251.59,121.52z"/>
	<path class="st13" d="M59.22,331.17"/>
	<path class="st3" d="M133.88,196.55c-0.1,1.81-0.69,3.95-0.37,4.05c0.51,0.15,3.71-4.9,3.31-9.93"/>
	<path class="st3" d="M119.54,176.69"/>
	<path class="st7" d="M133.52,200.6c4.39,1.66,21.49-4.93,5.2-16.46c-4.14-2.93-12.98-12.92-13.66-12.14
		c-0.55,0.64,6.78,12.2,4.83,16.14C119.61,208.84,120.77,195.76,133.52,200.6z"/>
	<path class="st7" d="M114.3,227.45"/>
	<line class="st0" x1="151.67" y1="201.57" x2="148.08" y2="192.19"/>
	<line class="st0" x1="157.06" y1="187.72" x2="148.08" y2="192.19"/>
	<path class="st7" d="M78.44,191.59c0.58-0.27,13.2,11.68,13.1,18.21c-0.05,3.06-11.14,5.02-11.72,5.79
		c-0.99,1.32-0.65-4.09-1.1-4.41c-0.54-0.38,1.2-2.81,1.93-5.79C82.42,198.11,77.83,191.87,78.44,191.59z"/>
	<path class="st7" d="M88.64,298.34"/>
	<path class="st7" d="M116.23,242.07"/>
	<path class="st11" d="M176.65,108.85c1.98-0.88,5.58-2.09,9.65-1.12c4.26,1.01,9.14,4.42,8.68,6.44c0,0.02,0,0.05-0.01,0.09
		c-0.02,0.07-0.05,0.12-0.06,0.13c-0.08,0.13,2.85,6.73,2.42,7.14c-0.33,0.32-3.43-2.42-7.17-5.52c-3.65-3.02-4.59-3.62-4.97-3.86
		C183.11,110.82,180.33,109.55,176.65,108.85z"/>
	<path class="st11" d="M185.2,112.14"/>
	<path class="st11" d="M367.26,102.76"/>
	<path class="st11" d="M344.09,129.24"/>
</g>
<g id="Layer_2">
	<polyline class="st0" points="-109.58,168.19 -108.2,171.32 -104.06,168.75 	"/>
	<path class="st0" d="M149.91,96.75c-0.85,2.56-1.25,4.45-1.2,4.51c0.08,0.08,0.16,0.15,0.16,0.15c0,0,0,0,0,0
		c0.2,0.15,0.39,0.21,0.54,0.23c0,0,0.15,0.05,0.31,0.07c0.55,0.1,15.83-4.16,15.46-4.97c-0.35-0.76-14.26,2.09-19.87,11.77
		c-0.8,1.37-1.19,2.46-1.93,4.6c-2.82,8.13-2.57,18.76-2.57,18.76c0.16,6.94,0.34,14.77,4.23,23.91c1.27,2.98,6.01,13.29,17.2,21.7
		c5.34,4.02,13.33,10.03,25.16,10.25c11.1,0.21,18.9-4.89,23.45-7.86c4.46-2.91,10.1-6.7,11.26-12.87c0.59-3.11-0.62-3.3,0.18-6.02
		c1.85-6.26,9.85-11.03,9.93-13.24c0.06-1.57-0.55-3.03-0.55-3.03c-0.76-1.84-1.84-2.2-2.62-3.31c-1.87-2.66,0.98-5.26,0.28-10.9
		c-0.21-1.71-0.32-4.14-1.97-5.51c-0.25-0.21-4.04,1.31-6.58,2.2c-3.94,1.38-9.12,0.07-11.59-2.9c-1.54-1.85-0.78-2.85-2.07-8
		c-0.88-3.53-2.06-8.22-5.1-11.59c-0.2-0.22-0.7-0.72-1.4-1.3c-3.67-3.03-7.66-3.68-9.08-3.94c-7.24-1.34-9.24-4.21-16.28-5.52
		C167.07,92.42,160.86,84.79,149.91,96.75z"/>
	<path class="st0" d="M152.63,82.26c-1.38,1.51-3.17,4.64-6.76,10.9c-0.51,0.89-1.23,2.17-1.52,4c-0.6,3.8,1.27,6.21,0.83,6.48
		c-1.03,0.64-11.97-12.26-8.97-16.83c0.61-0.93,1.77-1.48,3.31-3.86c0.79-1.22,1.93-3.31,1.93-3.31c1.4-3.2,2.22-4.62,2.22-4.62
		c0.29-0.5,0.43-0.75,0.54-0.9c1.68-2.31,5.34-2.01,8-2.48c3.59-0.64,4.46-2.56,8.28-4.97c4.87-3.08,6.84-2.1,18.21-4.97
		c8.8-2.21,7.59-2.79,16.55-4.97c8.97-2.18,13.67-2.45,16.55-2.48c2.46-0.03,5.85-0.05,10.21,0.83c4.44,0.9,7.71,2.3,11.31,3.86
		c5.08,2.21,4.91,2.65,9.38,4.69c9.64,4.39,12.06,3.04,16.83,6.9c1.42,1.15,4.63,3.81,6.34,8.28c1.19,3.1,0.49,4.03,1.66,10.76
		c1.08,6.21,1.82,6.27,1.66,9.1c-0.08,1.41-0.45,6.45-4.41,10.21c-0.84,0.8-2.98,2.77-6.34,3.31c-2.89,0.46-7.01-0.08-9.1-2.76
		c-1.4-1.79-1.23-3.69-1.38-6.34c-0.29-5.16-1.31-4.91-3.31-14.07c-2.9-13.29-0.92-14.66-3.59-18.21c-3.25-4.33-8.5-5.33-13.79-6.34
		c-4.86-0.93-13.67-3.36-21.41,1.06c-2.36,1.35-3.95,2.26-4.79,4.19c-2.14,4.92,3.62,10.31,0.55,15.17
		c-0.84,1.33-1.35,1.19-1.93,2.48c-2.35,5.23,4.08,11.82,3.03,12.69c-0.65,0.54-3.88-1.42-6.07-4.69c-2.37-3.54-2.04-6.39-2.76-8.55
		C190.54,76.77,161.46,72.61,152.63,82.26z"/>
	<path class="st0" d="M206.29,226.4c-0.03,4.78,3.36,10.84,7.17,14.34c1.06,0.97,1.31,0.98,2.21,1.93
		c3.59,3.81,3.68,8.08,4.69,13.52c0.83,4.47,2.61,11.54,6.62,18.21c2.96,4.92,5.02,6.12,6.07,6.62c5.33,2.54,12.09,0.24,12.14-1.1
		c0.03-0.85-2.68-0.58-4.69-2.76c-3.4-3.7-1.35-10.75-0.55-13.52c1.48-5.09,4.11-8.42,5.8-10.53c3.68-4.57,8.1-7.83,8.54-7.4
		c0.41,0.39-2.82,3.53-6.34,9.93c-2.47,4.49-4.01,7.34-4.14,11.03c-0.16,4.41,1.74,8.5,3.59,10.76
		c10.95,13.37,46.86-5.02,66.76,1.93c1.29,0.45,5.18,1.94,6.9,0.28c2.4-2.32-0.97-9.27-2.21-12.14c-3.07-7.16-2.46-11.4,0.55-55.72
		c1.69-24.93,2.13-32.79,0.55-33.1c-1.16-0.23-2.4,3.83-9.1,17.66c-7.03,14.48-9.53,17.99-12.14,20.97
		c-1.95,2.22-5.98,6.46-12.14,10.21c-5.71,3.47-12.88,6.29-13.52,5.24c-0.67-1.1,5.6-6.71,11.86-10.76
		c7.73-4.99,10.53-4.41,11.86-7.45c1.07-2.43,0.73-6.14-10.48-21.52c-8-10.97-12.01-16.46-14.9-17.93
		c-14.43-7.37-37.62,2.06-44.97,16.28c-2.84,5.49-0.75,6.75-4.41,13.79C215.48,217.72,206.34,218.59,206.29,226.4z"/>
	<path class="st0" d="M267.53,89.57c3.71-0.48,9.61-0.53,14.34,3.03c2.86,2.16,4.39,5.21,7.45,11.31c0.46,0.93,2.44,4.91,4.41,10.76
		c2.31,6.82,3.46,10.23,3.31,13.52c-0.27,5.95-3.05,9.16-1.1,11.59c1.27,1.58,2.99,0.87,4.69,2.21c3.77,2.97,1.72,11.46,1.1,14.07
		c-2.12,9.03-4.24,20.66-6.62,36.41l-3.59,8.83"/>
	<line class="st0" x1="148.87" y1="99.93" x2="145.18" y2="103.64"/>
	<polyline class="st0" points="140.17,124.97 137.32,125.43 127.48,107.87 127.85,104.47 126.93,100.52 127.3,97.48 135.94,90.68 	
		"/>
	<path class="st0" d="M221.73,261.43c-1.01,1.69-2.07,2.87-2.48,3.31c0.94,1.72,1.62,3.72,0.83,5.24c-1.16,2.22-4.7,1.9-11.03,3.03
		c-7.74,1.39-7.42,2.77-10.76,2.76c-5.95-0.01-6.47-5.47-17.93-12.14c-9.68-5.63-16.96-19.55-19.03-22.07
		c-2.57-3.13-6.22-1.6-9.38-4.69c-2.24-2.18-2.55-5.04-3.03-9.38c-0.28-2.57-0.27-5.18,1.1-15.45c1.13-8.42,1.51-9.61,0.55-10.48
		c-3.48-3.14-15.44,6.33-19.03,2.76c-1.12-1.11-0.37-2.43-1.66-3.31c-2.75-1.87-8.81,2.31-11.86,4.41
		c-3.69,2.55-2.99,2.81-5.24,4.14c-5.76,3.39-8.57,0.59-15.72,3.03c-6.23,2.13-8.23,5.66-11.59,4.41c-2.12-0.79-2.28-2.55-4.69-3.03
		c-2.37-0.47-4.47,0.77-6.9,2.21c-2.6,1.54-4.62,3.39-6.62,5.24c-2.85,2.64-4.05,4.19-5.52,3.86c-0.92-0.21-1.59-1.08-2.22-1.9
		c-0.68-0.89-1.56-1.9-1.36-3.06c0.18-1.09,1.12-1.43,2.76-4.14c1.41-2.32,1.2-2.86,1.1-3.03c-0.43-0.81-2.2-1.07-3.59-0.55
		c-2.64,0.99-2.18,4.15-5.79,7.17c-0.92,0.77-2.17,1.78-3.31,1.38c-1.3-0.46-1.61-2.45-1.66-2.76c0,0,2.75-6.2,6.07-10.76
		c1.81-2.48,5.09-6.99,10.76-9.66c5.28-2.49,7.52-0.97,11.31-4.14c2.7-2.26,2.53-3.84,5.52-5.79c2.8-1.83,3.78-0.98,8.28-2.48
		c7.04-2.35,7.6-5.41,13.24-6.07c3.18-0.37,3.3,0.57,6.34,0c5.07-0.95,8.39-4.24,9.38-5.24c4.46-4.53,3.42-7.92,6.34-11.86
		c2.23-3.01,6.74-6.3,16.83-6.9c0.44-0.22,1.67-0.79,3.3-1.2"/>
	<path class="st0" d="M217.32,85.71"/>
	<path class="st0" d="M228.72,168.84"/>
	<path class="st0" d="M221,179.5"/>
	<path class="st0" d="M225.41,180.98c-1.56,1.77-4.08,4.22-7.72,6.25c-4.45,2.49-8.32,3.11-12.14,3.68
		c-9.85,1.47-18.09-0.27-23.54-1.47c-1.87-0.41-3.39-0.82-4.41-1.1"/>
	<line class="st0" x1="246.29" y1="113.02" x2="247.25" y2="122.68"/>
	<line class="st0" x1="246.84" y1="130.95" x2="246.84" y2="131.23"/>
	<line class="st0" x1="247.25" y1="122.68" x2="246.29" y2="132.61"/>
	<line class="st0" x1="243.53" y1="144.47" x2="246.84" y2="138.68"/>
	<line class="st0" x1="253.46" y1="141.99" x2="252.36" y2="142.26"/>
	<line class="st0" x1="209.32" y1="219.78" x2="206.56" y2="201.3"/>
	<line class="st0" x1="167.67" y1="181.71" x2="207.39" y2="203.78"/>
	<line class="st0" x1="148.08" y1="192.19" x2="167.67" y2="181.71"/>
	<line class="st0" x1="150.56" y1="201.57" x2="148.08" y2="192.19"/>
	<line class="st0" x1="207.39" y1="203.78" x2="188.08" y2="224.19"/>
	<line class="st0" x1="186.7" y1="242.68" x2="188.08" y2="224.19"/>
	<line class="st0" x1="202.42" y1="255.09" x2="186.7" y2="242.68"/>
	<line class="st0" x1="193.6" y1="273.57" x2="202.42" y2="255.09"/>
	<line class="st0" x1="148.08" y1="192.19" x2="188.08" y2="224.19"/>
	<line class="st0" x1="246.84" y1="138.68" x2="268.36" y2="173.16"/>
	<line class="st0" x1="231.67" y1="144.7" x2="243.53" y2="144.47"/>
	<line class="st0" x1="246.99" y1="131.23" x2="246.69" y2="138.67"/>
	<line class="st0" x1="242.15" y1="161.02" x2="243.53" y2="144.47"/>
	<line class="st0" x1="225.41" y1="180.98" x2="242.15" y2="161.02"/>
	<line class="st0" x1="140.91" y1="123.23" x2="140.17" y2="124.98"/>
	<line class="st0" x1="127.3" y1="97.48" x2="135.67" y2="96.19"/>
	<line class="st0" x1="140.36" y1="102.26" x2="135.67" y2="96.19"/>
	<line class="st0" x1="143.38" y1="113.11" x2="140.36" y2="102.26"/>
	<line class="st0" x1="225.32" y1="124.88" x2="251.8" y2="110.81"/>
	<line class="st0" x1="201.05" y1="69.71" x2="209.18" y2="70.12"/>
	<line class="st0" x1="218.98" y1="83.5" x2="209.18" y2="70.12"/>
	<line class="st0" x1="223.67" y1="125.16" x2="218.98" y2="83.5"/>
	<line class="st0" x1="142.29" y1="78.26" x2="175.94" y2="66.95"/>
	<line class="st0" x1="183.67" y1="68.61" x2="175.94" y2="66.95"/>
	<line class="st0" x1="196.08" y1="65.85" x2="183.67" y2="68.61"/>
	<line class="st0" x1="201.05" y1="75.23" x2="196.08" y2="65.85"/>
	<line class="st0" x1="280.77" y1="186.12" x2="269.18" y2="101.71"/>
	<line class="st0" x1="167.11" y1="249.85" x2="161.05" y2="279.64"/>
	<line class="st0" x1="295.39" y1="206.54" x2="312.77" y2="193.57"/>
	<line class="st0" x1="294.84" y1="220.88" x2="279.39" y2="279.64"/>
	<line class="st0" x1="98.98" y1="180.88" x2="101.46" y2="211.78"/>
	<path class="st0" d="M169.32,102.26c29.3,16.25,34.27,22.02,33.38,24.28C201.33,130,169.2,104.43,169.32,102.26z"/>
</g>
</svg>
